<svg width="1789" height="1653" viewBox="0 0 1789 1653" fill="none" xmlns="http://www.w3.org/2000/svg">
<path d="M1710.38 212.439H1649.01L1698.69 162.76C1735.87 125.575 1735.87 65.074 1698.69 27.8859C1661.5 -9.29529 1601 -9.29529 1563.81 27.8859L1379.26 212.436H1250.9C1236.43 212.436 1224.7 224.166 1224.7 238.642C1224.7 253.118 1236.43 264.848 1250.9 264.848H1326.85L1174.69 417.007H52.4121V291.054C52.4121 276.602 64.1664 264.848 78.6182 264.848H1250.9C1265.38 264.848 1250.9 253.118 1250.9 238.642C1250.9 224.166 1265.38 212.436 1250.9 212.436H78.6182C35.2699 212.436 0 247.706 0 291.054V1591.38C0 1625.1 27.4325 1652.53 61.1475 1652.53H324.955C339.431 1652.53 351.161 1640.8 351.161 1626.33C351.161 1611.85 339.431 1600.12 324.955 1600.12H61.1475C56.329 1600.12 52.4121 1596.2 52.4121 1591.38V469.416H1122.28L1019.88 571.815C1017.18 574.523 1015.1 577.79 1013.79 581.386L966.486 711.403C961.385 725.428 964.771 740.694 975.32 751.246C982.626 758.549 992.186 762.417 1002.03 762.417C1006.41 762.417 1010.84 761.652 1015.17 760.08L1145.18 712.776C1148.78 711.469 1152.05 709.387 1154.75 706.682L1392.02 469.416H1736.59V1591.38C1736.59 1596.2 1732.67 1600.12 1727.85 1600.12H324.955C310.479 1600.12 319 1611.85 319 1626.33C319 1640.8 310.479 1652.53 324.955 1652.53H1727.85C1761.57 1652.53 1789 1625.1 1789 1591.38V291.058C1789 247.706 1753.73 212.439 1710.38 212.439ZM1121.8 665.518L1026.32 700.256L1061.06 604.772L1600.88 64.9517C1617.62 48.2008 1644.87 48.2043 1661.62 64.9482C1678.37 81.6991 1678.37 108.95 1661.62 125.697L1121.8 665.518ZM1736.59 417.011H1444.43L1596.59 264.851H1710.38C1724.83 264.851 1736.59 276.606 1736.59 291.058V417.011Z" fill="url(#paint0_linear)"/>
<path d="M158.983 368.438C173.457 368.438 185.189 356.705 185.189 342.231C185.189 327.758 173.457 316.025 158.983 316.025C144.51 316.025 132.777 327.758 132.777 342.231C132.777 356.705 144.51 368.438 158.983 368.438Z" fill="url(#paint1_linear)"/>
<path d="M239.349 368.438C253.822 368.438 265.555 356.705 265.555 342.231C265.555 327.758 253.822 316.025 239.349 316.025C224.875 316.025 213.143 327.758 213.143 342.231C213.143 356.705 224.875 368.438 239.349 368.438Z" fill="url(#paint2_linear)"/>
<path d="M319.714 368.438C334.187 368.438 345.92 356.705 345.92 342.231C345.92 327.758 334.187 316.025 319.714 316.025C305.241 316.025 293.508 327.758 293.508 342.231C293.508 356.705 305.241 368.438 319.714 368.438Z" fill="url(#paint3_linear)"/>
<path d="M1010.48 1451.23C1010.48 1476.35 1030.93 1496.79 1056.05 1496.79H1591.44C1616.56 1496.79 1637 1476.35 1637 1451.23V1308.44C1637 1293.96 1625.27 1282.23 1610.8 1282.23C1596.32 1282.23 1584.59 1293.96 1584.59 1308.44V1444.38H1510.83V1418.21C1510.83 1366.96 1478.75 1323.1 1433.63 1305.56C1448.01 1284.36 1456.42 1258.79 1456.42 1231.3C1456.42 1158.14 1396.9 1098.62 1323.74 1098.62C1250.59 1098.62 1191.07 1158.14 1191.07 1231.3C1191.07 1258.79 1199.48 1284.36 1213.86 1305.56C1168.74 1323.1 1136.66 1366.96 1136.66 1418.21V1444.38H1062.9V1067.01H1584.59V1186.15C1584.59 1200.62 1596.32 1212.35 1610.8 1212.35C1625.27 1212.35 1637 1200.62 1637 1186.15V1060.16C1637 1035.04 1616.56 1014.6 1591.44 1014.6H1056.05C1030.93 1014.6 1010.48 1035.04 1010.48 1060.16V1451.23ZM1323.74 1151.04C1368 1151.04 1404 1187.04 1404 1231.3C1404 1275.56 1368 1311.56 1323.74 1311.56C1279.49 1311.56 1243.48 1275.56 1243.48 1231.3C1243.48 1187.04 1279.49 1151.04 1323.74 1151.04V1151.04ZM1189.07 1418.21C1189.07 1380.47 1219.77 1349.78 1257.5 1349.78H1264.15C1282.08 1358.83 1302.32 1363.97 1323.74 1363.97C1345.17 1363.97 1365.41 1358.84 1383.34 1349.78H1389.99C1427.72 1349.78 1458.42 1380.47 1458.42 1418.21V1444.38H1189.07V1418.21Z" fill="url(#paint4_linear)"/>
<path d="M805.169 962.751C805.169 948.275 793.439 936.545 778.963 936.545H527.053C512.576 936.545 500.847 948.275 500.847 962.751V1214.66C500.847 1229.14 512.576 1240.87 527.053 1240.87C680.407 1240.87 805.169 1116.11 805.169 962.751V962.751ZM553.259 1186.94V988.957H751.244C739.217 1092.51 656.811 1174.92 553.259 1186.94Z" fill="url(#paint5_linear)"/>
<path d="M904.982 709.986H663.377C612.614 642.155 531.64 598.174 440.59 598.174C287.239 598.174 162.478 722.936 162.478 876.286C162.478 1029.64 287.239 1154.4 440.59 1154.4C455.066 1154.4 466.796 1142.67 466.796 1128.2V902.493H692.5C706.976 902.493 718.706 890.763 718.706 876.286C718.706 835.716 709.901 797.186 694.219 762.398H904.982C919.459 762.398 931.188 750.669 931.188 736.192C931.188 721.716 919.459 709.986 904.982 709.986V709.986ZM664.781 850.08H440.59C426.114 850.08 414.384 861.81 414.384 876.286V1100.48C302.233 1087.45 214.89 991.876 214.89 876.286C214.89 751.836 316.139 650.586 440.59 650.586C499.281 650.586 552.784 673.134 592.97 709.986H492.674C478.198 709.986 466.468 721.716 466.468 736.192C466.468 750.669 478.198 762.398 492.674 762.398H635.388C650.829 788.709 661.102 818.403 664.781 850.08V850.08Z" fill="url(#paint6_linear)"/>
<path d="M1610.8 733.824C1625.28 733.824 1637 722.094 1637 707.618C1637 693.142 1625.28 681.412 1610.8 681.412H1324.28C1309.8 681.412 1298.07 693.142 1298.07 707.618C1298.07 722.094 1309.8 733.824 1324.28 733.824H1610.8Z" fill="url(#paint7_linear)"/>
<path d="M1158.31 806.075C1158.31 820.551 1170.04 832.281 1184.51 832.281H1610.8C1625.28 832.281 1637 820.551 1637 806.075C1637 791.599 1625.28 779.869 1610.8 779.869H1184.51C1170.04 779.869 1158.31 791.602 1158.31 806.075Z" fill="url(#paint8_linear)"/>
<path d="M1010.48 904.535C1010.48 919.011 1022.21 930.741 1036.69 930.741H1610.8C1625.27 930.741 1637 919.011 1637 904.535C1637 890.059 1625.27 878.329 1610.8 878.329H1036.69C1022.22 878.329 1010.48 890.059 1010.48 904.535V904.535Z" fill="url(#paint9_linear)"/>
<path d="M188.684 1496.79H607.98C622.457 1496.79 634.187 1485.06 634.187 1470.59C634.187 1456.11 622.457 1444.38 607.98 1444.38H188.684C174.207 1444.38 162.478 1456.11 162.478 1470.59C162.478 1485.06 174.207 1496.79 188.684 1496.79Z" fill="url(#paint10_linear)"/>
<path d="M188.684 1394.05H607.98C622.457 1394.05 634.187 1382.32 634.187 1367.84C634.187 1353.36 622.457 1341.63 607.98 1341.63H188.684C174.207 1341.63 162.478 1353.36 162.478 1367.84C162.478 1382.32 174.207 1394.05 188.684 1394.05Z" fill="url(#paint11_linear)"/>
<path d="M904.982 1444.38H691.84C677.364 1444.38 665.634 1456.11 665.634 1470.59C665.634 1485.06 677.364 1496.79 691.84 1496.79H904.982C919.459 1496.79 931.188 1485.06 931.188 1470.59C931.188 1456.11 919.459 1444.38 904.982 1444.38Z" fill="url(#paint12_linear)"/>
<path d="M904.982 1341.63H691.84C677.364 1341.63 665.634 1353.36 665.634 1367.84C665.634 1382.32 677.364 1394.05 691.84 1394.05H904.982C919.459 1394.05 931.188 1382.32 931.188 1367.84C931.188 1353.36 919.459 1341.63 904.982 1341.63Z" fill="url(#paint13_linear)"/>
<defs>
<linearGradient id="paint0_linear" x1="894.5" y1="0" x2="894.5" y2="1652.53" gradientUnits="userSpaceOnUse">
<stop stop-color="#F96666"/>
<stop offset="1" stop-color="#A25382"/>
</linearGradient>
<linearGradient id="paint1_linear" x1="158.983" y1="316.025" x2="158.983" y2="368.438" gradientUnits="userSpaceOnUse">
<stop stop-color="#F96666"/>
<stop offset="1" stop-color="#A25382"/>
</linearGradient>
<linearGradient id="paint2_linear" x1="239.349" y1="316.025" x2="239.349" y2="368.438" gradientUnits="userSpaceOnUse">
<stop stop-color="#F96666"/>
<stop offset="1" stop-color="#A25382"/>
</linearGradient>
<linearGradient id="paint3_linear" x1="319.714" y1="316.025" x2="319.714" y2="368.438" gradientUnits="userSpaceOnUse">
<stop stop-color="#F96666"/>
<stop offset="1" stop-color="#A25382"/>
</linearGradient>
<linearGradient id="paint4_linear" x1="1323.74" y1="1014.6" x2="1323.74" y2="1496.79" gradientUnits="userSpaceOnUse">
<stop stop-color="#F96666"/>
<stop offset="1" stop-color="#A25382"/>
</linearGradient>
<linearGradient id="paint5_linear" x1="653.008" y1="936.545" x2="653.008" y2="1240.87" gradientUnits="userSpaceOnUse">
<stop stop-color="#F96666"/>
<stop offset="1" stop-color="#A25382"/>
</linearGradient>
<linearGradient id="paint6_linear" x1="546.833" y1="598.174" x2="546.833" y2="1154.4" gradientUnits="userSpaceOnUse">
<stop stop-color="#F96666"/>
<stop offset="1" stop-color="#A25382"/>
</linearGradient>
<linearGradient id="paint7_linear" x1="1467.54" y1="681.412" x2="1467.54" y2="733.824" gradientUnits="userSpaceOnUse">
<stop stop-color="#F96666"/>
<stop offset="1" stop-color="#A25382"/>
</linearGradient>
<linearGradient id="paint8_linear" x1="1397.66" y1="779.869" x2="1397.66" y2="832.281" gradientUnits="userSpaceOnUse">
<stop stop-color="#F96666"/>
<stop offset="1" stop-color="#A25382"/>
</linearGradient>
<linearGradient id="paint9_linear" x1="1323.74" y1="878.329" x2="1323.74" y2="930.741" gradientUnits="userSpaceOnUse">
<stop stop-color="#F96666"/>
<stop offset="1" stop-color="#A25382"/>
</linearGradient>
<linearGradient id="paint10_linear" x1="398.332" y1="1444.38" x2="398.332" y2="1496.79" gradientUnits="userSpaceOnUse">
<stop stop-color="#F96666"/>
<stop offset="1" stop-color="#A25382"/>
</linearGradient>
<linearGradient id="paint11_linear" x1="398.332" y1="1341.63" x2="398.332" y2="1394.05" gradientUnits="userSpaceOnUse">
<stop stop-color="#F96666"/>
<stop offset="1" stop-color="#A25382"/>
</linearGradient>
<linearGradient id="paint12_linear" x1="798.411" y1="1444.38" x2="798.411" y2="1496.79" gradientUnits="userSpaceOnUse">
<stop stop-color="#F96666"/>
<stop offset="1" stop-color="#A25382"/>
</linearGradient>
<linearGradient id="paint13_linear" x1="798.411" y1="1341.63" x2="798.411" y2="1394.05" gradientUnits="userSpaceOnUse">
<stop stop-color="#F96666"/>
<stop offset="1" stop-color="#A25382"/>
</linearGradient>
</defs>
</svg>
