<svg width="792" height="153" viewBox="0 0 792 153" fill="none" xmlns="http://www.w3.org/2000/svg">
<g id="facebook">
<path id="facebook_2" d="M50.1732 150.642H20.3298V76.3858H0V52.2095H20.3291V35.0063C20.3291 14.6206 29.3206 0 59.0832 0C65.378 0 75.2606 1.2664 75.2606 1.2664V23.7154H64.8806C54.3043 23.7154 50.1748 26.9265 50.1748 35.804V52.2095H74.8646L72.666 76.3858H50.174L50.1732 150.642ZM118.65 50.2775C118.215 50.2775 117.767 50.2933 117.325 50.3043C89.652 50.3043 76.9911 71.0806 76.9911 100.573C76.9911 137.726 93.414 152.595 117.541 152.595C131.344 152.595 140.414 146.796 145.926 135.974V150.652H174.311V52.2198H145.926V67.3573C141.425 57.6182 132.102 50.3929 118.65 50.2775ZM125.867 73.5368C137.49 73.5368 144.466 81.6285 144.466 95.3921L144.492 109.45C144.492 118.726 138.731 129.579 125.867 129.579C106.091 129.579 106.619 108.266 106.619 101.167C106.619 77.2878 117.156 73.5368 125.867 73.5368ZM185.775 101.441C185.775 89.4798 185.201 50.3415 236.288 50.3415C256.796 50.3415 265.359 56.8498 265.359 56.8498L258.476 78.1565C258.476 78.1565 249.924 73.4561 238.781 73.4561C224.508 73.4561 215.401 81.7146 215.401 96.2451L215.417 106.664C215.417 120.626 224.204 129.946 238.81 129.946C248.962 129.946 258.319 125.202 258.319 125.202L265.184 146.063C265.184 146.063 257.354 152.613 236.432 152.613C187.789 152.613 185.775 117.498 185.775 101.441ZM431.792 50.3043C459.465 50.3043 472.326 71.0806 472.326 100.573C472.326 137.726 455.902 152.595 431.775 152.595C417.972 152.595 407.768 146.797 402.255 135.974V150.652L374.227 150.641V2.99289L403.986 0.402372V66.0237C408.281 54.5431 422.395 50.3043 431.792 50.3043ZM423.449 73.5368C411.827 73.5368 403.986 81.6285 403.986 95.3921L403.958 109.45C403.941 118.726 409.388 129.579 423.449 129.579C443.225 129.579 442.697 108.266 442.697 101.167C442.697 77.2878 432.161 73.5368 423.449 73.5368ZM316.992 50.3858C285.605 50.3858 269.035 67.4664 269.035 97.8205V103.46C269.035 142.857 292.305 153 320.047 153C347.012 153 359.218 145.472 359.218 145.472L353.649 125.425C353.649 125.425 339.292 131.522 323.615 131.522C307.363 131.522 300.374 127.387 298.582 111.798H361.597V95.7154C361.597 62.7889 343 50.385 316.992 50.385L316.992 50.3858ZM317.749 70.4601C328.613 70.4601 335.654 77.1099 335.267 92.532H298.637C299.272 76.3004 306.864 70.4601 317.749 70.4601ZM531.663 50.2506C499.431 50.2506 482.463 68.3802 482.463 100.87C482.463 145.447 511.713 152.622 531.717 152.622C561.002 152.622 580.485 136.885 580.485 101.274C580.485 64.2095 558.579 50.2506 531.663 50.2506ZM531.258 73.6174C545.431 73.6174 551.047 84.2047 551.047 96.2561V106.617C551.047 121.217 543.188 129.661 531.204 129.661C519.996 129.661 512.118 121.762 512.118 106.617V96.2561C512.118 80.1043 521.492 73.6174 531.258 73.6174ZM639.77 50.2506C607.538 50.2506 590.569 68.3802 590.569 100.87C590.569 145.447 619.819 152.622 639.824 152.622C669.108 152.622 688.592 136.885 688.592 101.274C688.592 64.2095 666.684 50.2506 639.77 50.2506ZM639.364 73.6174C653.537 73.6174 659.152 84.2047 659.152 96.2561V106.617C659.152 121.217 651.294 129.661 639.31 129.661C628.102 129.661 620.225 121.762 620.225 106.617V96.2561C620.225 80.1043 629.598 73.6174 639.364 73.6174ZM699.837 150.642V2.99289L729.682 0.403162V99.3668L759.292 52.2103H790.81L759.922 101.051L792 150.642H760.392L729.682 102.489V150.642H699.837Z" fill="#1877F2"/>
</g>
</svg>
