<svg width="512" height="512" viewBox="0 0 512 512" fill="none" xmlns="http://www.w3.org/2000/svg">
<path d="M75 512H242V330H182V270H242V195C242 153.645 275.645 120 317 120H392V180H332C315.457 180 302 193.457 302 210V270H389.293L379.293 330H302V512H437C478.355 512 512 478.355 512 437V75C512 33.6445 478.355 0 437 0H75C33.6445 0 0 33.6445 0 75V437C0 478.355 33.6445 512 75 512ZM30 75C30 50.1875 50.1875 30 75 30H437C461.812 30 482 50.1875 482 75V437C482 461.812 461.812 482 437 482H332V360H404.707L424.707 240H332V210H422V90H317C259.102 90 212 137.102 212 195V240H152V360H212V482H75C50.1875 482 30 461.812 30 437V75Z" fill="black"/>
</svg>
