<svg width="793" height="225" viewBox="0 0 793 225" fill="none" xmlns="http://www.w3.org/2000/svg">
<path d="M40.7967 0.803007C24.5967 7.60301 6.79674 26.803 1.09674 50.803C-6.00326 81.303 23.5967 94.203 26.0967 90.003C28.9967 85.003 20.7967 83.403 19.0967 67.503C16.8967 47.103 26.3967 24.203 38.3967 14.203C40.5967 12.303 40.4967 14.903 40.4967 19.703C40.4967 28.303 39.9967 105.203 39.9967 121.203C39.9967 142.903 39.0967 149.803 37.4967 156.603C35.8967 163.503 33.1967 168.103 35.1967 169.903C37.3967 171.903 46.8967 167.103 52.3967 159.503C58.9967 150.303 61.2967 139.303 61.6967 127.303C62.1967 112.803 62.1967 89.903 62.1967 76.803C62.1967 64.803 62.3967 29.703 61.9967 8.60301C61.8967 3.40301 47.4967 -2.09699 40.7967 0.803007ZM616.397 102.403C615.897 113.703 613.397 122.503 610.297 128.703C604.297 140.803 591.797 144.503 586.497 127.203C583.597 117.803 583.497 102.003 585.597 88.803C587.697 75.403 593.597 65.203 603.397 66.103C612.897 67.103 617.397 79.503 616.397 102.403ZM454.197 172.503C454.097 191.303 451.097 207.703 444.797 212.503C435.797 219.303 423.697 214.203 426.197 200.503C428.397 188.403 438.897 176.003 454.197 160.903C454.197 160.903 454.197 164.303 454.197 172.503ZM451.697 102.303C451.197 112.603 448.497 122.903 445.597 128.803C439.597 140.903 426.997 144.603 421.797 127.303C418.197 115.403 419.097 100.103 420.897 90.403C423.197 77.903 428.697 66.203 438.697 66.203C448.297 66.203 453.097 76.803 451.697 102.303ZM357.697 102.203C357.097 113.103 354.997 122.203 351.597 128.803C345.397 140.803 333.197 144.603 327.797 127.303C323.897 114.803 325.197 97.803 326.897 88.603C329.297 75.003 335.297 65.303 344.697 66.203C354.297 67.103 358.897 79.503 357.697 102.203ZM788.397 114.903C785.997 114.903 784.997 117.303 784.097 121.403C780.997 135.603 777.797 138.803 773.597 138.803C768.897 138.803 764.697 131.803 763.697 117.703C762.897 106.603 762.997 86.303 764.097 66.003C764.297 61.803 763.197 57.703 751.997 53.703C747.197 52.003 740.197 49.403 736.697 57.803C726.897 81.503 722.997 100.303 722.097 108.003C722.097 108.403 721.597 108.503 721.497 107.603C720.897 101.503 719.597 90.403 719.497 67.003C719.497 62.403 718.497 58.603 713.497 55.403C710.197 53.303 700.297 49.703 696.697 54.003C693.597 57.503 689.997 67.103 686.297 78.403C683.297 87.603 681.197 93.803 681.197 93.803C681.197 93.803 681.197 69.003 681.297 59.603C681.297 56.003 678.897 54.903 678.097 54.603C674.797 53.603 668.297 52.003 665.497 52.003C662.097 52.003 661.297 53.903 661.297 56.703C661.297 57.103 660.797 89.403 660.797 112.003C660.797 113.003 660.797 114.103 660.797 115.203C658.897 125.603 652.797 139.703 646.097 139.703C639.397 139.703 636.297 133.803 636.297 106.903C636.297 91.203 636.797 84.303 636.997 73.003C637.097 66.503 637.397 61.403 637.397 60.303C637.397 56.803 631.297 55.003 628.497 54.403C625.697 53.703 623.197 53.503 621.297 53.603C618.597 53.803 616.697 55.503 616.697 58.003C616.697 59.303 616.697 61.803 616.697 61.803C613.197 56.303 607.597 52.503 603.797 51.403C593.697 48.403 583.197 51.103 575.297 62.203C568.997 71.003 565.197 81.003 563.697 95.403C562.597 105.903 562.997 116.503 564.897 125.603C562.497 135.803 558.197 139.903 553.397 139.903C546.497 139.903 541.397 128.603 541.997 109.003C542.397 96.103 544.997 87.103 547.797 74.003C548.997 68.403 547.997 65.503 545.597 62.703C543.397 60.103 538.597 58.803 531.697 60.403C526.797 61.503 519.797 62.803 513.397 63.703C513.397 63.703 513.797 62.203 514.097 59.403C515.797 45.103 500.297 46.303 495.297 50.903C492.297 53.603 490.297 56.803 489.597 62.603C488.397 71.803 495.897 76.103 495.897 76.103C493.497 87.303 487.397 102.003 481.297 112.503C477.997 118.203 475.397 122.403 472.197 126.803C472.197 125.103 472.197 123.503 472.197 121.803C472.097 98.203 472.397 79.703 472.597 73.003C472.697 66.503 472.997 61.603 472.997 60.403C472.997 57.803 471.497 56.903 468.397 55.703C465.697 54.603 462.397 53.903 458.997 53.603C454.697 53.303 452.197 55.503 452.197 58.203C452.197 58.703 452.197 61.803 452.197 61.803C448.697 56.303 443.097 52.503 439.297 51.403C429.197 48.403 418.697 51.103 410.797 62.203C404.497 71.003 400.397 83.403 399.197 95.303C398.097 106.403 398.297 115.803 399.797 123.703C398.197 131.603 393.597 139.903 388.397 139.903C381.697 139.903 377.897 134.003 377.897 107.103C377.897 91.403 378.397 84.503 378.597 73.203C378.697 66.703 378.997 61.603 378.997 60.503C378.997 57.003 372.897 55.203 370.097 54.603C367.197 53.903 364.597 53.703 362.697 53.803C360.097 54.003 358.297 56.303 358.297 58.003V62.003C354.797 56.503 349.197 52.703 345.397 51.603C335.297 48.603 324.797 51.303 316.897 62.403C311.697 69.603 307.497 77.603 305.297 95.303C304.697 100.403 304.397 105.203 304.397 109.703C302.297 122.403 293.097 137.103 285.597 137.103C281.197 137.103 276.997 128.603 276.997 110.403C276.997 86.203 278.497 51.703 278.797 48.403C278.797 48.403 288.297 48.203 290.097 48.203C294.797 48.103 299.097 48.303 305.397 47.903C308.597 47.703 311.597 36.403 308.297 35.003C306.797 34.403 296.397 33.803 292.197 33.703C288.697 33.603 278.997 32.903 278.997 32.903C278.997 32.903 279.897 10.003 280.097 7.60301C280.297 5.60301 277.697 4.50301 276.197 3.90301C272.597 2.40301 269.297 1.60301 265.497 0.803007C260.197 -0.296993 257.797 0.803008 257.297 5.30301C256.597 12.103 256.197 32.103 256.197 32.103C252.297 32.103 238.897 31.303 234.997 31.303C231.397 31.303 227.397 46.903 232.497 47.103C238.297 47.303 248.297 47.503 254.997 47.703C254.997 47.703 254.697 82.703 254.697 93.603C254.697 94.803 254.697 95.903 254.697 96.903C250.997 116.003 238.097 126.403 238.097 126.403C240.897 113.703 235.197 104.203 224.997 96.203C221.197 93.203 213.797 87.603 205.497 81.503C205.497 81.503 210.297 76.803 214.597 67.203C217.597 60.403 217.797 52.703 210.297 51.003C197.997 48.203 187.897 57.203 184.897 66.803C182.597 74.303 183.797 79.803 188.397 85.503C188.697 85.903 189.097 86.303 189.497 86.803C186.697 92.103 182.897 99.303 179.697 104.903C170.697 120.403 163.997 132.603 158.897 132.603C154.797 132.603 154.897 120.203 154.897 108.503C154.897 98.503 155.597 83.403 156.197 67.703C156.397 62.503 153.797 59.603 149.497 56.903C146.897 55.303 141.297 52.103 137.997 52.103C133.097 52.103 119.097 52.803 105.797 91.203C104.097 96.003 100.797 104.903 100.797 104.903L101.097 58.703C101.097 57.603 100.497 56.603 99.1967 55.903C96.9967 54.703 90.9967 52.203 85.6967 52.203C83.1967 52.203 81.8967 53.403 81.8967 55.703L80.9967 127.603C80.9967 133.103 81.0967 139.503 81.6967 142.303C82.1967 145.103 83.0967 147.403 84.1967 148.703C85.2967 150.103 86.4967 151.103 88.5967 151.503C90.4967 151.903 101.097 153.203 101.597 149.203C102.297 144.403 102.297 139.203 107.797 119.703C116.397 89.403 127.597 74.603 132.897 69.403C133.797 68.503 134.897 68.403 134.797 69.903C134.597 76.503 133.797 93.103 133.197 107.203C131.797 144.903 138.597 151.903 148.397 151.903C155.897 151.903 166.497 144.403 177.797 125.603C184.897 113.803 191.697 102.303 196.697 94.003C200.097 97.203 203.997 100.603 207.797 104.303C216.797 112.803 219.697 120.903 217.697 128.503C216.197 134.403 210.597 140.403 200.597 134.503C197.697 132.803 196.397 131.503 193.497 129.503C191.897 128.503 189.497 128.203 188.097 129.203C184.397 132.003 182.197 135.603 180.997 140.103C179.797 144.403 184.097 146.703 188.597 148.703C192.497 150.403 200.797 152.003 206.097 152.203C226.697 152.903 243.297 142.203 254.797 114.703C256.897 138.403 265.597 151.903 280.897 151.903C291.097 151.903 301.297 138.703 305.797 125.803C307.097 131.103 308.997 135.703 311.397 139.603C323.097 158.203 345.897 154.203 357.397 138.403C360.897 133.503 361.497 131.803 361.497 131.803C363.197 146.703 375.197 151.903 382.097 151.903C389.797 151.903 397.797 148.303 403.297 135.703C403.997 137.103 404.697 138.403 405.397 139.603C417.097 158.203 439.897 154.203 451.397 138.403C451.897 137.703 452.397 137.003 452.797 136.403L453.097 146.203C453.097 146.203 446.597 152.203 442.597 155.903C424.997 172.103 411.597 184.403 410.597 198.703C409.297 216.903 424.097 223.703 435.297 224.603C447.197 225.503 457.297 219.003 463.597 209.803C469.097 201.703 472.697 184.303 472.397 167.103C472.297 160.203 472.097 151.503 471.997 142.103C478.197 134.903 485.197 125.803 491.597 115.203C498.597 103.603 506.097 88.003 509.997 75.903C509.997 75.903 516.497 76.003 523.497 75.503C525.697 75.403 526.397 75.803 525.997 77.403C525.497 79.403 517.197 111.403 524.797 132.703C529.997 147.303 541.697 152.003 548.597 152.003C556.697 152.003 564.497 145.903 568.597 136.803C569.097 137.803 569.597 138.803 570.197 139.703C581.897 158.303 604.597 154.303 616.197 138.503C618.797 134.903 620.297 131.903 620.297 131.903C622.797 147.303 634.797 152.103 641.697 152.103C648.897 152.103 655.697 149.203 661.197 136.103C661.397 141.803 661.797 146.503 662.397 148.003C662.697 148.903 664.797 150.003 666.297 150.603C672.897 153.003 679.497 151.903 681.997 151.403C683.697 151.103 684.997 149.703 685.197 146.103C685.697 136.803 685.397 121.103 688.197 109.503C692.897 90.003 697.397 82.403 699.497 78.603C700.697 76.503 701.997 76.203 701.997 78.403C702.097 82.903 702.297 96.103 704.197 113.903C705.497 127.003 707.397 134.703 708.697 137.103C712.697 144.103 717.497 144.403 721.497 144.403C723.997 144.403 729.297 143.703 728.797 139.303C728.597 137.103 728.997 123.703 733.597 104.503C736.697 91.903 741.697 80.603 743.597 76.403C744.297 74.903 744.597 76.103 744.597 76.303C744.197 85.003 743.297 113.303 746.897 128.703C751.697 149.703 765.497 152.003 770.297 152.003C780.597 152.003 788.997 144.203 791.797 123.603C792.497 118.703 791.497 114.903 788.397 114.903Z" fill="#DF3285"/>
</svg>
