<svg width="506" height="594" viewBox="0 0 506 594" fill="none" xmlns="http://www.w3.org/2000/svg">
<path d="M0.00012207 582.874V11.0002C0.00012207 4.92511 4.92499 0.000244141 11.0001 0.000244141H222.308C228.383 0.000244141 233.308 4.92511 233.308 11.0002V582.874C233.308 588.95 228.383 593.874 222.308 593.874H11.0001C4.92499 593.874 0.00012207 588.95 0.00012207 582.874Z" fill="#E1E1E1"/>
<path d="M253.339 256.479V11.0002C253.339 4.92511 258.264 0.000244141 264.339 0.000244141H494.5C500.575 0.000244141 505.5 4.92509 505.5 11.0002V256.479C505.5 262.554 500.575 267.479 494.5 267.479H264.339C258.264 267.479 253.339 262.554 253.339 256.479Z" fill="#E1E1E1"/>
<path d="M490.622 575.868L272.819 312.265C266.251 304.316 253.339 308.96 253.339 319.272V582.874C253.339 588.95 258.264 593.874 264.339 593.874H482.142C491.447 593.874 496.549 583.041 490.622 575.868Z" fill="#E1E1E1"/>
</svg>
