<svg width="506" height="594" viewBox="0 0 506 594" fill="none" xmlns="http://www.w3.org/2000/svg">
<path d="M0.00012207 582.874V11.0001C0.00012207 4.92499 4.92499 0.00012207 11.0001 0.00012207H222.308C228.383 0.00012207 233.308 4.92499 233.308 11.0001V582.874C233.308 588.949 228.383 593.874 222.308 593.874H11.0001C4.92499 593.874 0.00012207 588.949 0.00012207 582.874Z" fill="url(#paint0_linear)"/>
<path d="M253.339 256.479V11.0001C253.339 4.92499 258.264 0.00012207 264.339 0.00012207H494.5C500.575 0.00012207 505.5 4.92497 505.5 11.0001V256.479C505.5 262.554 500.575 267.479 494.5 267.479H264.339C258.264 267.479 253.339 262.554 253.339 256.479Z" fill="url(#paint1_linear)"/>
<path d="M490.622 575.868L272.819 312.265C266.251 304.316 253.339 308.96 253.339 319.272V582.874C253.339 588.949 258.264 593.874 264.339 593.874H482.142C491.447 593.874 496.549 583.041 490.622 575.868Z" fill="url(#paint2_linear)"/>
<defs>
<linearGradient id="paint0_linear" x1="401.808" y1="143.755" x2="-1.17818" y2="595.053" gradientUnits="userSpaceOnUse">
<stop stop-color="#F96666"/>
<stop offset="1" stop-color="#A25382"/>
</linearGradient>
<linearGradient id="paint1_linear" x1="401.808" y1="143.755" x2="-1.17818" y2="595.053" gradientUnits="userSpaceOnUse">
<stop stop-color="#F96666"/>
<stop offset="1" stop-color="#A25382"/>
</linearGradient>
<linearGradient id="paint2_linear" x1="401.808" y1="143.755" x2="-1.17818" y2="595.053" gradientUnits="userSpaceOnUse">
<stop stop-color="#F96666"/>
<stop offset="1" stop-color="#A25382"/>
</linearGradient>
</defs>
</svg>
