<svg width="1414" height="1219" viewBox="0 0 1414 1219" fill="none" xmlns="http://www.w3.org/2000/svg">
<path d="M1389.62 975.172H1316.48V804.517C1316.48 791.035 1305.59 780.138 1292.1 780.138H1218.97V609.483C1218.97 596.001 1208.07 585.103 1194.59 585.103H1121.45V414.448C1121.45 400.967 1110.55 390.069 1097.07 390.069H1023.93V219.414C1023.93 205.932 1013.03 195.034 999.552 195.034H926.414V48.7586H999.552C1013.03 48.7586 1023.93 37.8611 1023.93 24.3793C1023.93 10.8976 1013.03 0 999.552 0H902.034H511.966H414.448C400.967 0 390.069 10.8976 390.069 24.3793C390.069 37.8611 400.967 48.7586 414.448 48.7586H487.586V195.034H414.448C400.967 195.034 390.069 205.932 390.069 219.414V390.069H316.931C303.449 390.069 292.552 400.967 292.552 414.448V585.103H219.414C205.932 585.103 195.034 596.001 195.034 609.483V780.138H121.897C108.415 780.138 97.5172 791.035 97.5172 804.517V975.172H24.3793C10.8976 975.172 0 986.07 0 999.552V1194.59C0 1208.07 10.8976 1218.97 24.3793 1218.97H511.966H902.034H1389.62C1403.1 1218.97 1414 1208.07 1414 1194.59V999.552C1414 986.07 1403.1 975.172 1389.62 975.172ZM487.586 1170.21H48.7586V1023.93H121.897H487.586V1170.21ZM487.586 975.172H146.276V828.897H219.414H487.586V975.172ZM487.586 780.138H243.793V633.862H316.931H487.586V780.138ZM487.586 585.103H341.31V438.828H414.448H487.586V585.103ZM487.586 390.069H438.828V243.793H487.586V390.069ZM877.655 414.448V609.483V804.517V999.552V1170.21H536.345V999.552V804.517V609.483V414.448V243.793H658.241H755.759H877.655V414.448ZM682.621 195.034V146.276H731.379V195.034H682.621ZM877.655 195.034H780.138V121.897C780.138 108.415 769.24 97.5172 755.759 97.5172H658.241C644.76 97.5172 633.862 108.415 633.862 121.897V195.034H536.345V48.7586H877.655V195.034ZM926.414 243.793H975.172V390.069H926.414V243.793ZM926.414 438.828H999.552H1072.69V585.103H926.414V438.828ZM926.414 633.862H1097.07H1170.21V780.138H926.414V633.862ZM926.414 828.897H1194.59H1267.72V975.172H926.414V828.897ZM1365.24 1170.21H926.414V1023.93H1292.1H1365.24V1170.21Z" fill="black"/>
<path d="M804.517 1072.69H609.483C596.001 1072.69 585.104 1083.59 585.104 1097.07C585.104 1110.55 596.001 1121.45 609.483 1121.45H804.517C817.999 1121.45 828.897 1110.55 828.897 1097.07C828.897 1083.59 817.999 1072.69 804.517 1072.69Z" fill="black"/>
<path d="M804.517 877.655H609.483C596.001 877.655 585.104 888.553 585.104 902.035C585.104 915.516 596.001 926.414 609.483 926.414H804.517C817.999 926.414 828.897 915.516 828.897 902.035C828.897 888.553 817.999 877.655 804.517 877.655Z" fill="black"/>
<path d="M804.517 682.621H609.483C596.001 682.621 585.104 693.518 585.104 707C585.104 720.482 596.001 731.379 609.483 731.379H804.517C817.999 731.379 828.897 720.482 828.897 707C828.897 693.518 817.999 682.621 804.517 682.621Z" fill="black"/>
<path d="M804.517 487.586H609.483C596.001 487.586 585.104 498.484 585.104 511.966C585.104 525.447 596.001 536.345 609.483 536.345H804.517C817.999 536.345 828.897 525.447 828.897 511.966C828.897 498.484 817.999 487.586 804.517 487.586Z" fill="black"/>
<path d="M804.517 292.552H609.483C596.001 292.552 585.104 303.449 585.104 316.931C585.104 330.413 596.001 341.31 609.483 341.31H804.517C817.999 341.31 828.897 330.413 828.897 316.931C828.897 303.449 817.999 292.552 804.517 292.552Z" fill="black"/>
<path d="M804.517 390.069H609.483C596.001 390.069 585.104 400.966 585.104 414.448C585.104 427.93 596.001 438.827 609.483 438.827H804.517C817.999 438.827 828.897 427.93 828.897 414.448C828.897 400.966 817.999 390.069 804.517 390.069Z" fill="black"/>
<path d="M804.517 585.104H609.483C596.001 585.104 585.104 596.001 585.104 609.483C585.104 622.965 596.001 633.862 609.483 633.862H804.517C817.999 633.862 828.897 622.965 828.897 609.483C828.897 596.001 817.999 585.104 804.517 585.104Z" fill="black"/>
<path d="M804.517 780.138H609.483C596.001 780.138 585.104 791.035 585.104 804.517C585.104 817.999 596.001 828.896 609.483 828.896H804.517C817.999 828.896 828.897 817.999 828.897 804.517C828.897 791.035 817.999 780.138 804.517 780.138Z" fill="black"/>
<path d="M804.517 975.172H609.483C596.001 975.172 585.104 986.07 585.104 999.552C585.104 1013.03 596.001 1023.93 609.483 1023.93H804.517C817.999 1023.93 828.897 1013.03 828.897 999.552C828.897 986.07 817.999 975.172 804.517 975.172Z" fill="black"/>
</svg>
