<svg width="901" height="520" viewBox="0 0 901 520" fill="none" xmlns="http://www.w3.org/2000/svg">
<g filter="url(#filter0_d)">
<rect x="4" width="893" height="495" rx="32" fill="#3D3D3D"/>
</g>
<circle cx="31" cy="27" r="8" fill="#E1E1E1"/>
<circle cx="79" cy="27" r="8" fill="#E1E1E1"/>
<circle cx="55" cy="27" r="8" fill="#E1E1E1"/>
<path d="M897 53H4V317.433C196.932 233.039 449.498 317.433 449.498 317.433C767.5 409 897 248.043 897 248.043V53Z" fill="#7C7C7C"/>
<circle cx="602" cy="168" r="74" fill="url(#paint0_linear)"/>
<circle cx="676" cy="227" r="80" fill="url(#paint1_linear)"/>
<rect x="47" y="124" width="349" height="44" rx="10" fill="#F2F2F2"/>
<path d="M47 390C47 384.477 51.4772 380 57 380H539C544.523 380 549 384.477 549 390V495H47V390Z" fill="#DBDBDB"/>
<path d="M586 390C586 384.477 590.477 380 596 380H843C848.523 380 853 384.477 853 390V495H586V390Z" fill="#5F5F5F"/>
<rect x="47" y="189" width="349" height="19" rx="5" fill="#F2F2F2"/>
<circle cx="719.5" cy="470.5" r="49.5" fill="url(#paint2_linear)"/>
<rect x="71" y="402" width="293" height="25" rx="10" fill="#444444"/>
<rect x="71" y="448" width="457" height="12" rx="6" fill="#444444"/>
<rect x="71" y="471" width="457" height="12" rx="6" fill="#444444"/>
<defs>
<filter id="filter0_d" x="0" y="0" width="901" height="503" filterUnits="userSpaceOnUse" color-interpolation-filters="sRGB">
<feFlood flood-opacity="0" result="BackgroundImageFix"/>
<feColorMatrix in="SourceAlpha" type="matrix" values="0 0 0 0 0 0 0 0 0 0 0 0 0 0 0 0 0 0 127 0" result="hardAlpha"/>
<feOffset dy="4"/>
<feGaussianBlur stdDeviation="2"/>
<feComposite in2="hardAlpha" operator="out"/>
<feColorMatrix type="matrix" values="0 0 0 0 0 0 0 0 0 0 0 0 0 0 0 0 0 0 0.25 0"/>
<feBlend mode="normal" in2="BackgroundImageFix" result="effect1_dropShadow"/>
<feBlend mode="normal" in="SourceGraphic" in2="effect1_dropShadow" result="shape"/>
</filter>
<linearGradient id="paint0_linear" x1="602" y1="242" x2="602" y2="94" gradientUnits="userSpaceOnUse">
<stop stop-color="#C4C4C4"/>
<stop offset="1" stop-color="#C4C4C4" stop-opacity="0"/>
</linearGradient>
<linearGradient id="paint1_linear" x1="676" y1="147" x2="676" y2="307" gradientUnits="userSpaceOnUse">
<stop stop-color="#C4C4C4"/>
<stop offset="1" stop-color="#C4C4C4" stop-opacity="0"/>
</linearGradient>
<linearGradient id="paint2_linear" x1="720" y1="461" x2="720" y2="493.5" gradientUnits="userSpaceOnUse">
<stop/>
<stop offset="1" stop-color="#C4C4C4" stop-opacity="0"/>
</linearGradient>
</defs>
</svg>
